<svg width="891" height="1053" viewBox="0 0 891 1053" fill="none" xmlns="http://www.w3.org/2000/svg">
<g clip-path="url(#clip0)">
<path d="M833.107 247.757C886.176 341.222 867.005 466.053 836.788 584.28C806.572 702.508 765.31 814.513 687.23 853.753C609.15 893.247 494.125 860.23 387.607 808.799C281.215 757.622 183.456 688.158 129.498 573.74C75.5408 459.576 65.384 300.204 139.02 201.914C212.911 103.878 370.213 66.7967 512.027 79.4957C653.84 92.0677 779.784 154.293 833.107 247.757Z" fill="#F7F7F7"/>
<path d="M325.397 205.724L1.90454 509.991L482.572 703.016L325.397 205.724Z" stroke="#E5E5E5" stroke-width="3.06" stroke-linecap="round" stroke-linejoin="round"/>
<path d="M427.091 721.556C414.395 743.145 377.069 812.354 370.848 820.101C364.627 827.847 153.494 958.519 153.494 958.519C158.826 971.472 168.221 1038.4 131.657 1052.87C125.182 1030.65 97.8857 932.741 97.8857 932.741L126.579 925.375L257.601 768.289C257.601 768.289 266.742 557.739 294.292 531.961C321.207 546.437 427.091 721.556 427.091 721.556Z" fill="#777777"/>
<path d="M311.812 859.467C344.06 838.895 368.817 822.767 370.975 820.101C377.196 812.354 414.522 743.145 427.218 721.556C427.218 721.556 321.334 546.437 294.292 531.961C276.01 549.104 265.853 648.029 261.028 712.413C271.693 767.4 287.817 820.989 311.812 859.467Z" fill="#383838"/>
<path d="M394.59 214.74L208.975 488.276L507.837 541.739L394.59 214.74Z" fill="#FE697D"/>
<path d="M425.06 184.77C453.457 184.77 476.478 161.744 476.478 133.339C476.478 104.935 453.457 81.9084 425.06 81.9084C396.662 81.9084 373.641 104.935 373.641 133.339C373.641 161.744 396.662 184.77 425.06 184.77Z" fill="#8CE08C"/>
<path d="M460.608 123.942C461.37 118.735 459.847 114.164 457.434 113.783C455.022 113.402 452.483 117.466 451.721 122.672C450.96 127.879 452.483 132.45 454.895 132.831C457.308 133.212 459.847 129.149 460.608 123.942Z" stroke="#24A148" stroke-width="3.65" stroke-linecap="round" stroke-linejoin="round"/>
<path d="M425.06 64.2569C442.799 64.2569 457.18 49.8725 457.18 32.1284C457.18 14.3844 442.799 0 425.06 0C407.32 0 392.939 14.3844 392.939 32.1284C392.939 49.8725 407.32 64.2569 425.06 64.2569Z" fill="#24A148"/>
<path d="M294.292 531.961C317.145 546.31 464.29 586.058 503.267 590.63C520.152 618.695 673.265 963.853 673.265 963.853C690.786 950.138 755.281 931.344 776.737 956.742C755.916 970.457 650.413 1042.08 650.413 1042.08C650.413 1042.08 297.466 584.661 294.292 531.961Z" fill="#C2C2C2"/>
<path fill-rule="evenodd" clip-rule="evenodd" d="M756.677 422.241H650.92L741.188 173.976H847.072L756.677 422.241Z" fill="#FEFDDB"/>
<path fill-rule="evenodd" clip-rule="evenodd" d="M612.451 133.339L597.724 173.976H646.857L661.585 133.339H612.451Z" fill="#9EF5EE"/>
<path opacity="0.75" fill-rule="evenodd" clip-rule="evenodd" d="M785.116 272.266L760.105 341.095H865.863L891 272.266H785.116Z" fill="#9EF5EE"/>
<path d="M674.123 136.318C675.751 129.424 671.483 122.516 664.591 120.889C657.699 119.261 650.792 123.53 649.165 130.423C647.537 137.317 651.805 144.225 658.697 145.853C665.589 147.481 672.496 143.212 674.123 136.318Z" fill="#FE697D"/>
<path d="M425.441 302.871C394.59 335.761 349.9 351.889 305.083 346.428" stroke="#9EF5EE" stroke-width="5.14" stroke-linecap="round" stroke-linejoin="round"/>
<path d="M392.939 521.166C394.462 473.545 419.854 429.988 460.481 405.098" stroke="#9EF5EE" stroke-width="5.14" stroke-linecap="round" stroke-linejoin="round"/>
<path d="M437.375 338.428C399.287 382.874 337.712 399.256 282.611 379.7" stroke="#9EF5EE" stroke-width="5.14" stroke-linecap="round" stroke-linejoin="round"/>
<path fill-rule="evenodd" clip-rule="evenodd" d="M279.818 410.812C279.818 386.684 299.37 367.255 323.365 367.255C347.488 367.255 366.912 386.811 366.912 410.812C366.912 434.94 347.361 454.37 323.365 454.37C299.243 454.37 279.818 434.813 279.818 410.812Z" fill="#8CE08C"/>
<path d="M796.797 117.212L769.12 144.895L760.105 133.085" stroke="#9EF5EE" stroke-width="5.14" stroke-linecap="round" stroke-linejoin="round"/>
<path d="M783.719 170.928L756.042 198.612L747.028 186.675" stroke="#9EF5EE" stroke-width="5.14" stroke-linecap="round" stroke-linejoin="round"/>
<path d="M758.201 230.106L730.524 257.789L721.51 245.852" stroke="#9EF5EE" stroke-width="5.14" stroke-linecap="round" stroke-linejoin="round"/>
<path fill-rule="evenodd" clip-rule="evenodd" d="M620.069 305.919C620.069 281.791 639.621 262.361 663.616 262.361C687.612 262.361 707.163 281.918 707.163 305.919C707.163 329.92 687.612 349.476 663.616 349.476C639.621 349.476 620.069 329.92 620.069 305.919Z" fill="#8CE08C"/>
</g>
<defs>
<clipPath id="clip0">
<rect width="891" height="1053" fill="white"/>
</clipPath>
</defs>
</svg>
